<svg height="512" viewBox="0 0 64 64" width="512" xmlns="http://www.w3.org/2000/svg"><g id="blance"><circle cx="15" cy="26" fill="#57a4ff" r="10"/><path d="m25 26a10 10 0 0 1 -18.78 4.78 9.9 9.9 0 0 0 4.78 1.22 10 10 0 0 0 10-10 9.9 9.9 0 0 0 -1.22-4.78 9.984 9.984 0 0 1 5.22 8.78z" fill="#2488ff"/><path d="m61 7v4h-58v-4h25a4 4 0 0 1 8 0z" fill="#c0ab91"/><path d="m36 7h-4a3.98 3.98 0 0 0 -2-3.46 3.994 3.994 0 0 1 6 3.46z" fill="#b39a7c"/><path d="m57 7h4v4h-4z" fill="#b39a7c"/><path d="m30 11h4v44h-4z" fill="#c0ab91"/><path d="m32 11h2v44h-2z" fill="#b39a7c"/><path d="m9 57v3h-6v-22h6v3z" fill="#c0ab91"/><circle cx="49" cy="26" fill="#ffde55" r="10"/><path d="m59 26a10 10 0 0 1 -18.78 4.78 9.9 9.9 0 0 0 4.78 1.22 10 10 0 0 0 10-10 9.9 9.9 0 0 0 -1.22-4.78 9.984 9.984 0 0 1 5.22 8.78z" fill="#ffcd00"/><circle cx="15" cy="26" fill="#ffde55" r="6"/><path d="m21 26a6 6 0 0 1 -11.86 1.28 6 6 0 0 0 8.72-6.56 6.009 6.009 0 0 1 3.14 5.28z" fill="#ffcd00"/><path d="m53 52.67v.91a2 2 0 0 1 -1.33 1.89l-15.67 5.53h-15l-12-4v-16h7l14 4.12 1.56.46a1.992 1.992 0 0 1 1.44 1.92v.5a2.006 2.006 0 0 1 -2 2h-12l9 5h8l14.44-4.25a2 2 0 0 1 2.56 1.92z" fill="#ffdaaa"/><path d="m53 52.67v.91a2 2 0 0 1 -1.33 1.89l-15.67 5.53h-15l-12-4v-2.67l8 2.67h15l14.04-4.96 4.4-1.29a2 2 0 0 1 2.56 1.92z" fill="#ffc477"/><path d="m50 19h-2v2a2 2 0 0 0 -2 2v2a2 2 0 0 0 2 2h2v2h-4v2h2v2h2v-2a2 2 0 0 0 2-2v-2a2 2 0 0 0 -2-2h-2v-2h4v-2h-2z"/><path d="m61 6h-24.1a5 5 0 0 0 -9.8 0h-24.1a1 1 0 0 0 -1 1v4a1 1 0 0 0 1 1h4.7l-2.32 8.67a11 11 0 1 0 19.24 0l-2.32-8.67h6.7v31.78l-12.72-3.74a.863.863 0 0 0 -.28-.04h-6v-2a1 1 0 0 0 -1-1h-6a1 1 0 0 0 -1 1v22a1 1 0 0 0 1 1h6a1 1 0 0 0 1-1v-1.61l10.68 3.56a1.185 1.185 0 0 0 .32.05h15a.919.919 0 0 0 .33-.06l15.67-5.53a3 3 0 0 0 2-2.83v-.91a2.984 2.984 0 0 0 -1.2-2.4 3.025 3.025 0 0 0 -2.65-.48l-14.29 4.21h-.86v-42h6.7l-2.32 8.67a11 11 0 1 0 19.24 0l-2.32-8.67h4.7a1 1 0 0 0 1-1v-4a1 1 0 0 0 -1-1zm-53 53h-4v-20h4zm16-33a9 9 0 1 1 -9-9 9.014 9.014 0 0 1 9 9zm-15.63-8.76 1.4-5.24h10.46l1.4 5.24a10.932 10.932 0 0 0 -13.26 0zm27.63 38.76a.863.863 0 0 0 .28-.04l14.44-4.25a1 1 0 0 1 1.28.96v.91a1 1 0 0 1 -.67.95l-15.5 5.47h-14.67l-11.16-3.72v-14.28h5.86l15.42 4.54a1 1 0 0 1 .72.96v.5a1 1 0 0 1 -1 1h-12a1 1 0 0 0 -.49 1.87l9 5a.947.947 0 0 0 .49.13zm-5-11.63v-32.37h2v33.27a3.043 3.043 0 0 0 -1.15-.65zm2 5.85v3.78h-2v-3a2.974 2.974 0 0 0 2-.78zm-4 .78v3h-.74l-5.4-3zm29-25a9 9 0 1 1 -9-9 9.014 9.014 0 0 1 9 9zm-15.63-8.76 1.4-5.24h10.46l1.4 5.24a10.932 10.932 0 0 0 -13.26 0zm17.63-7.24h-56v-2h24a1 1 0 0 0 1-1 3 3 0 0 1 6 0 1 1 0 0 0 1 1h24z"/><path d="m15 19a7 7 0 1 0 7 7 7.008 7.008 0 0 0 -7-7zm0 12a5 5 0 1 1 5-5 5.006 5.006 0 0 1 -5 5z"/><path d="m16 26.132v-3.132h-2v3.132l-1.445-.964-1.11 1.664 3 2a1 1 0 0 0 1.11 0l3-2-1.11-1.664z"/></g></svg>