<svg id="Layer_1" enable-background="new 0 0 512 512" height="512" viewBox="0 0 512 512" width="512" xmlns="http://www.w3.org/2000/svg"><g><path d="m145 10h314.5c23.472 0 42.5 19.028 42.5 42.5s-19.028 42.5-42.5 42.5h-314.5z" fill="#fff"/><path d="m459.5 95h-49.5v407h49.5c23.472 0 42.5-19.028 42.5-42.5v-407c0 23.472-19.028 42.5-42.5 42.5z" fill="#ffda8f"/><path d="m10 95h400v407h-400z" fill="#fff"/><circle cx="100" cy="418.5" fill="#ff7b79" r="40"/><circle cx="100" cy="298.5" fill="#ffda8f" r="40"/><circle cx="100" cy="178.5" fill="#b8ecbc" r="40"/><g><path d="m459.5 0h-314.5c-5.523 0-10 4.477-10 10v75h-125c-5.523 0-10 4.477-10 10v407c0 5.523 4.477 10 10 10h449.5c7.09 0 13.96-1.39 20.44-4.13 6.25-2.64 11.86-6.43 16.68-11.25s8.61-10.43 11.25-16.68c2.74-6.48 4.13-13.35 4.13-20.44v-116.21c0-5.52-4.49-10-10-10s-10 4.48-10 10v116.21c-.01 8.67-3.39 16.83-9.52 22.98-6.15 6.13-14.31 9.52-22.98 9.52h-39.5v-81.75h20c5.523 0 10-4.477 10-10s-4.477-10-10-10h-20v-81.75h20c5.523 0 10-4.477 10-10s-4.477-10-10-10h-20v-81.75h20c5.523 0 10-4.477 10-10s-4.477-10-10-10h-20v-81.75h39.5c6.02 0 11.93-1.01 17.55-3.01 5.4-1.91 10.43-4.69 14.95-8.26v159.56c0 5.51 4.49 10 10 10s10-4.49 10-10v-200.79c0-28.949-23.551-52.5-52.5-52.5zm-79.5 206.75h20v81.75h-20c-5.523 0-10 4.477-10 10s4.477 10 10 10h20v81.75h-20c-5.523 0-10 4.477-10 10s4.477 10 10 10h20v81.75h-380v-387h380v81.75h-20c-5.523 0-10 4.477-10 10s4.477 10 10 10zm102.48-131.27c-6.15 6.13-14.31 9.52-22.98 9.52h-304.5v-65h304.5c17.92 0 32.5 14.58 32.5 32.5-.01 8.67-3.39 16.83-9.52 22.98z"/><circle cx="502" cy="298.29" r="10"/><path d="m226 168.5h30c5.523 0 10-4.477 10-10s-4.477-10-10-10h-30c-5.523 0-10 4.477-10 10s4.477 10 10 10z"/><path d="m316 188.5h-90c-5.523 0-10 4.477-10 10s4.477 10 10 10h90c5.523 0 10-4.477 10-10s-4.477-10-10-10z"/><path d="m266 398.5c0-5.523-4.477-10-10-10h-30c-5.523 0-10 4.477-10 10s4.477 10 10 10h30c5.523 0 10-4.477 10-10z"/><circle cx="316" cy="438.5" r="10"/><circle cx="271" cy="438.5" r="10"/><circle cx="226" cy="438.5" r="10"/><path d="m226 288.5h30c5.523 0 10-4.477 10-10s-4.477-10-10-10h-30c-5.523 0-10 4.477-10 10s4.477 10 10 10z"/><path d="m316 308.5h-90c-5.523 0-10 4.477-10 10s4.477 10 10 10h90c5.523 0 10-4.477 10-10s-4.477-10-10-10z"/><path d="m100 368.5c-27.57 0-50 22.43-50 50s22.43 50 50 50 50-22.43 50-50-22.43-50-50-50zm0 80c-16.542 0-30-13.458-30-30s13.458-30 30-30 30 13.458 30 30-13.458 30-30 30z"/><path d="m100 248.5c-27.57 0-50 22.43-50 50s22.43 50 50 50 50-22.43 50-50-22.43-50-50-50zm0 80c-16.542 0-30-13.458-30-30s13.458-30 30-30 30 13.458 30 30-13.458 30-30 30z"/><path d="m100 128.5c-27.57 0-50 22.43-50 50s22.43 50 50 50 50-22.43 50-50-22.43-50-50-50zm0 80c-16.542 0-30-13.458-30-30s13.458-30 30-30 30 13.458 30 30-13.458 30-30 30z"/></g></g></svg>