<svg height="480pt" viewBox="0 0 480 480" width="480pt" xmlns="http://www.w3.org/2000/svg"><path d="m160 328h168v104h-168zm0 0" fill="#662b24"/><path d="m227.910156 471.449219c-1.207031-.105469-2.398437-.25-3.621094-.378907 1.207032.128907 2.40625.273438 3.621094.378907zm0 0" fill="#ffb531"/><path d="m215.59375 469.871094c-1.21875-.199219-2.441406-.390625-3.65625-.625 1.214844.234375 2.460938.425781 3.65625.625zm0 0" fill="#ffb531"/><g fill="#ffa912"><path d="m211.9375 469.246094c-3.875-.75-7.714844-1.597656-11.503906-2.671875 3.789062 1.058593 7.628906 1.921875 11.503906 2.671875zm0 0"/><path d="m224.289062 471.070312c-2.914062-.3125-5.8125-.714843-8.695312-1.199218 2.878906.492187 5.777344.890625 8.695312 1.199218zm0 0"/><path d="m240 472c-4.046875 0-8.078125-.222656-12.089844-.550781 4.011719.328125 8.042969.550781 12.089844.550781zm0 0"/></g><path d="m272.855469 401.296875c-34.523438 14.601563-74.539063 4.847656-98.472657-24l-12.277343-17.296875h-18.105469l-32 48 30.144531 26.792969c16.753907 14.894531 36.691407 25.765625 58.289063 31.78125 30.097656-14.066407 55.316406-36.796875 72.421875-65.277344zm0 0" fill="#ffb531"/><path d="m321.542969 360-15.941407 17.273438c-2.164062 2.578124-4.476562 5.023437-6.929687 7.328124-.398437.382813-.839844.710938-1.246094 1.078126-2.125 1.941406-4.347656 3.777343-6.65625 5.496093-.25.183594-.511719.34375-.800781.527344-2.554688 1.847656-5.210938 3.550781-7.953125 5.105469l-.136719.070312c-2.925781 1.652344-5.949218 3.125-9.054687 4.417969-17.109375 28.484375-42.328125 51.214844-72.433594 65.277344 3.792969 1.058593 7.632813 1.921875 11.503906 2.671875 1.21875.234375 2.402344.425781 3.65625.625 2.882813.492187 5.78125.890625 8.695313 1.199218 1.210937.128907 2.402344.273438 3.625.378907 4 .328125 8 .550781 12.089844.550781 36.074218 0 70.894531-13.238281 97.855468-37.207031l30.183594-26.792969-24-48zm0 0" fill="#ffa912"/><path d="m104 200h272v160h-272zm0 0" fill="#662b24"/><path d="m104 288h272v16h-272zm0 0" fill="#57221d"/><path d="m104 256h272v16h-272zm0 0" fill="#57221d"/><path d="m104 320h272v16h-272zm0 0" fill="#57221d"/><path d="m160 200h160v56h-160zm0 0" fill="#662b24"/><path d="m264 96h-48v-16c0-13.253906 10.746094-24 24-24s24 10.746094 24 24zm0 0" fill="#ffb531"/><path d="m352 184h-224l4.953125-18.398438c12.277344-45.601562 56.414063-77.601562 107.046875-77.601562s94.769531 32 107.046875 77.601562zm0 0" fill="#e04343"/><path d="m313.160156 240.894531c-7.488281 9.101563-18.5 14.582031-30.273437 15.074219-11.777344.488281-23.203125-4.058594-31.421875-12.503906-6.332032-6.335938-16.597656-6.335938-22.929688 0-8.027344 8.023437-18.910156 12.535156-30.261718 12.535156-12.238282.050781-23.824219-5.515625-31.433594-15.105469l-12.96875-14.757812-1.871094.214843v85.648438l24.847656 49.6875c4.382813 8.769531 13.347656 14.3125 23.152344 14.3125h80c9.804688 0 18.769531-5.542969 23.152344-14.3125l24.847656-49.6875v-85.648438l-1.871094-.214843zm0 0" fill="#e94f4f"/><path d="m326.128906 226.136719-12.96875 14.757812c-11.492187 14.148438-30.949218 19-47.734375 11.90625-5.496093 44.1875-21.460937 86.421875-46.5625 123.199219h61.136719c9.804688 0 18.769531-5.542969 23.152344-14.3125l24.847656-49.6875v-85.648438zm0 0" fill="#cf3a3a"/><path d="m240 288c-.859375-.003906-1.714844-.144531-2.527344-.414062l-24-8 5.054688-15.203126 21.472656 7.183594 21.472656-7.152344 5.054688 15.203126-24 8c-.816406.261718-1.667969.390624-2.527344.382812zm0 0" fill="#662b24"/><path d="m269.601562 335.800781c-19.636718-3.015625-39.617187-3.015625-59.25 0-4.402343.863281-8.960937-.226562-12.492187-2.992187-3.535156-2.765625-5.691406-6.929688-5.90625-11.410156.222656-7.398438 5.828125-13.523438 13.183594-14.398438l5.191406-.800781c19.632813-3.015625 39.613281-3.015625 59.246094 0l5.195312.800781c7.382813.855469 13.015625 7.003906 13.230469 14.433594-.226562 4.472656-2.386719 8.628906-5.917969 11.386718-3.53125 2.757813-8.085937 3.84375-12.480469 2.980469zm0 0" fill="#662b24"/><path d="m176 296c-2.121094 0-4.15625-.84375-5.65625-2.34375l-24-24c-3.03125-3.140625-2.988281-8.128906.097656-11.214844 3.085938-3.085937 8.074219-3.128906 11.214844-.097656l24 24c2.285156 2.289062 2.972656 5.730469 1.734375 8.71875s-4.15625 4.9375-7.390625 4.9375zm0 0" fill="#cf3a3a"/><path d="m304 296c-3.234375 0-6.152344-1.949219-7.390625-4.9375s-.550781-6.429688 1.734375-8.71875l24-24c3.140625-3.03125 8.128906-2.988281 11.214844.097656 3.085937 3.085938 3.128906 8.074219.097656 11.214844l-24 24c-1.5 1.5-3.535156 2.34375-5.65625 2.34375zm0 0" fill="#ba2727"/><path d="m76.6875 114.742188-4.6875-18.742188-64 64c15.425781 41.136719 45.839844 74.921875 85.136719 94.566406l23.128906 11.570313 11.734375-82.136719c-25.609375-15.367188-44.070312-40.28125-51.3125-69.257812zm0 0" fill="#e94f4f"/><path d="m76.6875 114.742188-4.6875-18.742188-64 64c15.425781 41.136719 45.839844 74.921875 85.136719 94.566406l23.128906 11.570313 11.734375-82.136719c-25.609375-15.367188-44.070312-40.28125-51.3125-69.257812zm0 0" fill="#e04343"/><path d="m116.265625 266.136719-23.128906-11.570313c-6.511719-3.316406-12.804688-7.042968-18.847657-11.152344l-5.144531 14.808594c-8.703125 25.007813-13.144531 51.300782-13.144531 77.777344l48 24zm0 0" fill="#cf3a3a"/><path d="m403.3125 114.742188 4.6875-18.742188 64 64c-15.425781 41.136719-45.839844 74.921875-85.136719 94.566406l-23.128906 11.570313-11.734375-82.136719c25.609375-15.367188 44.070312-40.28125 51.3125-69.257812zm0 0" fill="#e94f4f"/><path d="m363.734375 266.136719 23.128906-11.570313c6.511719-3.316406 12.804688-7.042968 18.847657-11.152344l5.144531 14.808594c8.703125 25.007813 13.144531 51.300782 13.144531 77.777344l-48 24zm0 0" fill="#cf3a3a"/><path d="m368 408 48.167969 3.703125c31.503906 2.425781 55.832031 28.699219 55.832031 60.296875h-232c36.074219 0 70.894531-13.238281 97.855469-37.207031zm0 0" fill="#e94f4f"/><path d="m437.480469 417.398438c-17.25 24.777343-68.449219 42.410156-93.480469 54.601562h128c-.003906-23.335938-13.441406-44.585938-34.519531-54.601562zm0 0" fill="#cf3a3a"/><path d="m398.359375 410.335938-23.039063 61.664062h17.070313l22.570313-60.382812zm0 0" fill="#ba2727"/><path d="m447.335938 423.289062c-4.394532-3.246093-9.207032-5.878906-14.3125-7.824218l-17.703126 56.535156h16.757813zm0 0" fill="#ba2727"/><path d="m368 408-12.472656 11.089844-18.933594 52.910156h16.992188l22.671874-63.367188zm0 0" fill="#ba2727"/><path d="m331.847656 226.808594-68.199218-8c-15.710938-1.847656-31.585938-1.847656-47.296876 0l-68.199218 8c-8.761719 1.03125-17.378906-2.828125-22.449219-10.042969-5.066406-7.21875-5.765625-16.636719-1.824219-24.527344l4.121094-8.238281h224l4.121094 8.238281c3.941406 7.890625 3.242187 17.308594-1.824219 24.527344-5.070313 7.214844-13.6875 11.074219-22.449219 10.042969zm0 0" fill="#ffb531"/><path d="m356.121094 192.238281-4.121094-8.238281h-72.734375c-12.699219 12.363281-26.480469 23.558594-41.1875 33.449219 8.554687-.097657 17.105469.347656 25.601563 1.335937l68.199218 8c8.75 1.011719 17.347656-2.847656 22.40625-10.054687 5.058594-7.210938 5.761719-16.609375 1.835938-24.492188zm0 0" fill="#ffa912"/><path d="m325.550781 410.105469 28-28.410157-7.542969-15.144531-31.808593 32.273438-.222657.199219-16-17.382813c-3.824218 3.753906-7.992187 7.132813-12.457031 10.09375l16.214844 17.601563c-16.289063 12.035156-35.660156 19.195312-55.863281 20.648437v-24.121094c-2.648438.25-5.3125.433594-8 .433594s-5.351563-.199219-8-.457031v24.128906c-20.199219-1.511719-39.550782-8.726562-55.816406-20.800781l16.25-17.601563c-4.457032-2.976562-8.617188-6.371094-12.433594-10.132812l-16 17.359375c-.070313-.074219-.152344-.128907-.214844-.199219l-27.953125-28-9.070313 13.597656 25.695313 25.761719c4.714844 4.683594 9.796875 8.980469 15.199219 12.855469l-14.617188 19.015625c4.339844 3.140625 8.84375 6.046875 13.496094 8.703125l14.648438-19.054688c15.667968 8.496094 32.992187 13.480469 50.777343 14.617188v23.894531c2.664063.144531 5.320313.367187 8 .375 2.679688.007813 5.335938-.214844 8-.359375v-23.886719c17.839844-1.09375 35.226563-6.0625 50.953125-14.5625l14.398438 19.203125c4.660156-2.640625 9.175781-5.527344 13.519531-8.65625l-14.398437-19.203125c5.414062-3.847656 10.511718-8.128906 15.246093-12.789062zm0 0" fill="#f7a116"/><path d="m112 408-48.167969 3.703125c-31.503906 2.425781-55.832031 28.699219-55.832031 60.296875h232c-36.074219 0-70.894531-13.238281-97.855469-37.207031zm0 0" fill="#e94f4f"/><path d="m142.144531 434.792969-.800781-.695313c-20.738281 18.96875-46.164062 32.054688-73.65625 37.902344h172.3125c-36.074219 0-70.894531-13.238281-97.855469-37.207031zm0 0" fill="#cf3a3a"/><path d="m81.640625 410.335938 23.039063 61.664062h-17.070313l-22.570313-60.382812zm0 0" fill="#ba2727"/><path d="m32.664062 423.289062c4.394532-3.246093 9.207032-5.878906 14.3125-7.824218l17.703126 56.535156h-16.757813zm0 0" fill="#ba2727"/><path d="m112 408 12.472656 11.089844 18.933594 52.910156h-16.992188l-22.671874-63.367188zm0 0" fill="#ba2727"/><path d="m347.046875 165.601562c-10.851563-37.304687-41.136719-65.753906-79.046875-74.25-25.015625 55.785157-82.238281 81.449219-120 92.648438h204zm0 0" fill="#cf3a3a"/><path d="m280 48c8.835938 0 16 7.164062 16 16v8c0 30.929688-25.070312 56-56 56s-56-25.070312-56-56v-8c0-8.835938 7.164062-16 16-16 0-22.089844-17.910156-40-40-40h-40c15.367188 15.367188 24 36.210938 24 57.945312v14.054688c0 53.019531 42.980469 96 96 96s96-42.980469 96-96v-14.054688c0-21.734374 8.632812-42.578124 24-57.945312h-40c-22.089844 0-40 17.910156-40 40zm0 0" fill="#ffb531"/><path d="m102.191406 162.695312c-8.5625 26.710938-28.550781 48.230469-54.550781 58.746094 13.265625 13.4375 28.632813 24.625 45.496094 33.125l23.128906 11.570313 11.734375-82.136719c-9.617188-5.773438-18.316406-12.953125-25.808594-21.304688zm0 0" fill="#cf3a3a"/><path d="m472 160-64-64-4.6875 18.742188c-1.675781 6.621093-3.957031 13.074218-6.808594 19.28125 14.683594 30.132812 23.707032 62.703124 26.617188 96.097656 21.871094-18.945313 38.671875-43.046875 48.878906-70.121094zm0 0" fill="#cf3a3a"/><path d="m413.023438 265.398438c-.742188-2.398438-1.34375-4.796876-2.167969-7.199219l-5.144531-14.808594c-6.042969 4.109375-12.335938 7.835937-18.847657 11.152344l-22.863281 11.449219c16.242188 2.796874 32.855469 2.597656 49.023438-.59375zm0 0" fill="#ba2727"/><path d="m320 8c-22.089844 0-40 17.910156-40 40h.296875c1.050781-3.996094 1.835937-8.058594 2.34375-12.160156-.507813 4.101562-1.292969 8.164062-2.34375 12.160156 8.71875.160156 15.703125 7.277344 15.703125 16v8c.085938 16.074219-6.777344 31.40625-18.828125 42.046875-12.050781 10.644531-28.109375 15.558594-44.050781 13.488281-13.550782 13-28.816406 24.082032-45.378906 32.929688 29.503906 19.207031 67.152343 20.710937 98.09375 3.917968 30.9375-16.789062 50.195312-49.179687 50.164062-84.382812v-14.054688c0-21.734374 8.632812-42.578124 24-57.945312zm0 0" fill="#ffa912"/><path d="m240 288c.859375-.003906 1.714844-.144531 2.527344-.414062l24-8-5.054688-15.203126-21.472656 7.183594-21.472656-7.152344-5.054688 15.203126 24 8c.816406.261718 1.667969.390624 2.527344.382812zm0 0"/><path d="m207.726562 344c1.296876 0 2.585938-.097656 3.867188-.296875 18.820312-2.886719 37.976562-2.886719 56.796875 0 7.082031 1.15625 14.3125-.867187 19.761719-5.535156 4.941406-4.160157 7.808594-10.277344 7.847656-16.734375-.222656-11.351563-8.738281-20.816406-20-22.234375l-5.183594-.800781c-20.4375-3.160157-41.242187-3.160157-61.679687 0l-5.191407.800781c-11.242187 1.441406-19.726562 10.902343-19.945312 22.234375.035156 6.453125 2.898438 12.570312 7.832031 16.734375 4.429688 3.78125 10.070313 5.851562 15.894531 5.832031zm-1.328124-29.03125 5.195312-.800781c18.820312-2.902344 37.976562-2.902344 56.796875 0l5.183594.800781c3.4375.28125 6.152343 3.027344 6.402343 6.464844-.042968 1.78125-.859374 3.457031-2.242187 4.589844-1.929687 1.585937-4.449219 2.265624-6.917969 1.863281-20.441406-3.144531-41.242187-3.144531-61.679687 0-2.46875.402343-4.988281-.277344-6.921875-1.863281-1.378906-1.132813-2.195313-2.808594-2.238282-4.589844.25-3.449219 2.980469-6.195313 6.421876-6.464844zm0 0"/><path d="m416.800781 403.726562-43.648437-3.359374-16.207032-32.367188h19.054688c1.238281.011719 2.460938-.261719 3.574219-.800781l48-24c2.726562-1.359375 4.441406-4.152344 4.425781-7.199219.007812-27.378906-4.589844-54.5625-13.601562-80.414062l-3.132813-9.019532c29.238281-20.925781 51.585937-50.082031 64.207031-83.75 1.105469-2.9375.386719-6.253906-1.832031-8.472656l-64-64c-2.035156-2.035156-5.011719-2.820312-7.789063-2.054688-2.773437.765626-4.925781 2.964844-5.628906 5.757813l-4.710937 18.753906c-5.734375 23.347657-19.421875 43.972657-38.710938 58.328125l-2.046875-7.59375c-3.953125-14.554687-10.96875-28.097656-20.578125-39.71875 6.445313-13.710937 9.800781-28.667968 9.824219-43.816406v-14.0625c-.054688-19.621094 7.742188-38.445312 21.65625-52.28125 2.285156-2.289062 2.972656-5.730469 1.734375-8.71875s-4.15625-4.9375-7.390625-4.9375h-40c-26.5.0273438-47.972656 21.5-48 48 0 4.417969 3.582031 8 8 8s8 3.582031 8 8v8c-.015625 5.625-1.019531 11.203125-2.976562 16.480469-4.257813-1.617188-8.609376-2.988281-13.023438-4.113281v-4.367188c0-17.671875-14.328125-32-32-32s-32 14.328125-32 32v4.367188c-4.414062 1.125-8.765625 2.496093-13.023438 4.113281-1.957031-5.277344-2.960937-10.855469-2.976562-16.480469v-8c0-4.417969 3.582031-8 8-8s8-3.582031 8-8c-.027344-26.5-21.5-47.9726562-48-48h-40c-3.234375 0-6.152344 1.949219-7.390625 4.9375s-.550781 6.429688 1.734375 8.71875c13.914062 13.835938 21.710938 32.660156 21.65625 52.28125v14.0625c.019531 15.148438 3.367188 30.105469 9.808594 43.816406-9.605469 11.613282-16.621094 25.148438-20.570313 39.695313l-2.054687 7.617187c-19.285156-14.359375-32.96875-34.980468-38.703125-58.328125l-4.71875-18.722656c-.699219-2.785156-2.835938-4.984375-5.601563-5.757813-2.777344-.785156-5.757812.003907-7.785156 2.054688l-64 64c-2.21875 2.222656-2.9375 5.535156-1.832031 8.472656 12.625 33.671875 34.976562 62.824219 64.21875 83.753906l-3.160157 8.992188c-9.011718 25.847656-13.609374 53.03125-13.601562 80.40625-.015625 3.046875 1.699219 5.839844 4.425781 7.199219l48 24c1.113281.539062 2.335938.8125 3.574219.800781h25.054688l-21.550782 32.320312-44.304687 3.40625c-35.589844 2.90625-63.042969 32.5625-63.199219 68.273438 0 4.417969 3.582031 8 8 8h464c4.417969 0 8-3.582031 8-8-.15625-35.710938-27.609375-65.367188-63.199219-68.273438zm12.910157 19.25-11.742188 41.023438h-22.402344l16.722656-44.574219 3.285157.253907c4.835937.429687 9.585937 1.539062 14.113281 3.296874zm-34.039063-4.800781-17.214844 45.824219h-22.914062l17.839843-47.566406zm-63.128906 10.625c-3.390625 3.015625-6.933594 5.816407-10.574219 8.472657l-9.640625-12.847657c5.417969-3.820312 10.519531-8.070312 15.246094-12.714843l22.234375-22.230469 8.296875 16.589843zm-35.808594-12.960937c-4.933594 3.074218-10.109375 5.75-15.46875 8-10.609375 4.300781-21.84375 6.867187-33.265625 7.601562v-15.882812c10.945312-.902344 21.648438-3.730469 31.609375-8.359375 4.460937-2.125 8.738281-4.605469 12.796875-7.421875l11.25 11.246094c-2.257812 1.648437-4.519531 3.375-6.921875 4.816406zm65.96875-95.839844h-29.757813l2.214844-4.425781c.554688-1.109375.839844-2.332031.839844-3.574219v-8h24.617188zm-26.703125-32v-16h20.433594l2.085937 16zm18.230469-32h-18.230469v-21.070312c5.148438-.179688 10.175781-1.625 14.632812-4.210938zm-210.230469 0h-18.230469l3.597657-25.28125c4.457031 2.585938 9.484374 4.023438 14.632812 4.191406zm-20.433594 16h20.433594v16h-22.519531zm-4.183594 32h24.617188v8c0 1.242188.285156 2.464844.839844 3.574219l2.214844 4.425781h-29.757813zm40.617188-20.6875 10.34375 10.34375 11.3125-11.3125-21.65625-21.65625v-15.457031l.800781.945312c8.09375 9.644531 19.511719 15.902344 32 17.527344 15.289063 1.652344 30.507813-3.707031 41.382813-14.582031 3.207031-3.207032 8.410156-3.207032 11.617187 0 10.878907 10.878906 26.101563 16.242187 41.398438 14.582031 12.488281-1.625 23.90625-7.882813 32-17.527344l.800781-.945312v15.457031l-21.65625 21.65625 11.3125 11.3125 10.34375-10.34375v26.800781l-24 48c-3.011719 6.074219-9.21875 9.910157-16 9.886719h-80c-6.78125.023438-12.988281-3.8125-16-9.886719l-24-48zm9.9375-51.015625 47.351562-5.601563c15.089844-1.757812 30.332032-1.757812 45.421876 0l47.351562 5.601563-2.910156 3.320313c-5.453125 6.621093-13.183594 10.964843-21.671875 12.183593-10.476563 1.121094-20.902344-2.550781-28.359375-9.992187-9.460938-9.441406-24.78125-9.441406-34.242188 0-7.464844 7.429687-17.882812 11.101562-28.359375 9.992187-8.488281-1.21875-16.21875-5.5625-21.671875-12.183593zm30.0625 151.703125h80c2.851562-.015625 5.6875-.386719 8.449219-1.105469-4.800781 3.890625-10.054688 7.179688-15.648438 9.792969-26.726562 12.542969-58.265625 8.742188-81.25-9.792969 2.757813.722657 5.597657 1.09375 8.449219 1.105469zm116.945312-32 8-16h39.855469l2.09375 16zm32-156.183594c2.625 5.257813 2.15625 11.53125-1.21875 16.34375-3.378906 4.808594-9.121093 7.378906-14.957031 6.695313l-68.210937-8c-16.328125-1.910157-32.820313-1.910157-49.152344 0l-68.207031 8c-5.835938.683593-11.578125-1.886719-14.957031-6.695313-3.375-4.8125-3.84375-11.085937-1.21875-16.34375l1.921874-3.816406h214.109376zm-233.746093 140.183594h39.847656l8 16h-49.933594zm72.367187 63.742188c13.207032 9.007812 28.507813 14.453124 44.433594 15.816406v16c-17.230469-1.238282-33.910156-6.605469-48.632812-15.648438-2.398438-1.484375-4.726563-3.199218-7.039063-4.894531zm-6.246094 33.402343c15.640626 8.460938 32.933594 13.433594 50.679688 14.574219v15.914062c-21.214844-1.207031-41.871094-7.265624-60.375-17.710937zm66.679688 14.464844c13.542969-.820313 26.859375-3.867187 39.40625-9.023437 3.882812-1.652344 7.679688-3.492188 11.378906-5.523438l9.597656 12.800781c-18.5 10.464844-39.160156 16.546875-60.382812 17.769531zm94.265625-73.210937-26 26c-.089844.089843-.195313.160156-.28125.25l-11.007813-11.007813c2.414063-2.335937 4.703126-4.792969 6.855469-7.367187l11.511719-14.273438h15.710938zm40.214844-26.597657-10.074219-77.058593 15.65625-7.855469 2.402344-1.183594.648437-.34375c1.597657-.800781 3.199219-1.597656 4.796875-2.511719 1.808594-.976562 3.691406-2.078125 5.601563-3.199218l1.808593 5.175781c7.871094 22.605469 12.136719 46.308593 12.648438 70.238281zm28.558593-231.152343 1.273438-5.046876 50.328125 50.328126c-12.394531 30.320312-33.523437 56.269531-60.703125 74.550781-.234375.074219-.460938.164062-.679688.261719-5.761718 3.925781-11.761718 7.484374-17.96875 10.648437l-13.175781 6.585937-5.601562-39.488281c3.320312-8.394531 2.878906-17.8125-1.214844-25.855469l-.96875-1.9375c24.316406-16.535156 41.664063-41.472656 48.710937-70.023437zm-71.71875 51.015624 2.28125 8.335938h-61.601562c18.511719-7.753906 34.398438-20.675781 45.769531-37.214844 6.210938 8.742188 10.800781 18.535156 13.550781 28.902344zm-115.320312-87.664062c0-8.835938 7.164062-16 16-16s16 7.164062 16 16v1.296875c-10.625-1.304687-21.375-1.304687-32 0zm53.039062 22.496094c-9.105468 11.082031-22.695312 17.503906-37.039062 17.503906s-27.933594-6.421875-37.039062-17.503906c23.996093-8.289063 50.082031-8.289063 74.078124 0zm-117.039062-86.496094c15.199219.019531 28.296875 10.710938 31.359375 25.601562-9.25 3.582032-15.347656 12.476563-15.359375 22.398438v8c0 35.347656 28.652344 64 64 64s64-28.652344 64-64v-8c-.011719-9.921875-6.109375-18.816406-15.359375-22.398438 3.0625-14.890624 16.160156-25.582031 31.359375-25.601562h23.105469c-9.894531 14.769531-15.152344 32.160156-15.105469 49.9375v14.0625c0 48.601562-39.398438 88-88 88s-88-39.398438-88-88v-14.0625c.046875-17.777344-5.210938-35.167969-15.105469-49.9375zm-19.3125 151.664062c2.765625-10.363281 7.371094-20.144531 13.601562-28.878906 11.367188 16.539063 27.261719 29.460938 45.773438 37.214844h-61.597656zm-123.328125-5.710937 50.328125-50.328125 1.265625 5.023438c7.046875 28.570312 24.40625 53.527343 48.742187 70.070312l-.96875 1.9375c-4.09375 8.046875-4.535156 17.460938-1.214843 25.855469l-5.601563 39.488281-13.175781-6.585938c-6.214844-3.152343-12.222656-6.699218-17.992187-10.613281-.199219-.136719-.453126-.136719-.671876-.257812-27.179687-18.296875-48.308593-44.261719-60.710937-74.589844zm80.160156 185.871094-33.472656-16.746094c.511719-23.925781 4.777344-47.628906 12.648437-70.230469l1.808594-5.183594c1.902344 1.128907 3.792969 2.230469 5.601563 3.199219 1.597656.878907 3.199219 1.6875 4.796875 2.496094l.683594.359375 2.398437 1.183594 15.65625 7.859375zm58.929688 20.175781 11.808593 14.398438c2.128907 2.535156 4.386719 4.953124 6.765626 7.25l-11.023438 11.023437c-.089844-.085937-.191406-.160156-.28125-.246094l-22.238281-22.242187 6.800781-10.183594zm-24 23.761719 20 20c4.761719 4.675781 9.902343 8.957031 15.367187 12.796875l-9.71875 12.800781c-3.65625-2.664063-7.203125-5.472656-10.609375-8.496094l-24.945312-22.175781zm-25.832031 24.671875 17.839843 47.566406h-22.914062l-17.191407-45.847656zm-42.167969 3.246094 3.285156-.253907 16.722656 44.574219h-22.402343l-11.742188-41.023438c4.53125-1.757812 9.292969-2.867187 14.136719-3.296874zm-28.449219 11.425781 9.390625 32.894531h-28.796875c2.121094-13.007812 9.046875-24.746094 19.40625-32.894531zm135.320312 32.894531h-29.777343l-10.703125-28.550781 5.992187 5.328125c3.199219 2.855468 6.558594 5.519531 9.976563 8.078125.925781.703125 1.878906 1.367187 2.824218 2.039062 2.664063 1.921875 5.398438 3.75 8.191407 5.488281.929687.578126 1.839843 1.175782 2.777343 1.738282 3.503907 2.085937 7.0625 4.078125 10.71875 5.878906zm148-5.847656c1-.59375 1.96875-1.230469 2.953126-1.839844 2.710937-1.703125 5.375-3.480469 8-5.351562.992187-.714844 1.992187-1.410157 2.964843-2.144532 3.394531-2.550781 6.730469-5.199218 9.921875-8l5.992188-5.328125-10.695313 28.511719h-29.785156c3.632813-1.792969 7.175781-3.769531 10.664063-5.847656zm115.289063 5.847656 9.390625-32.894531c10.351562 8.152343 17.269531 19.890625 19.382812 32.894531zm0 0"/></svg>